<?xml version="1.0" standalone="no"?>
<!DOCTYPE svg PUBLIC "-//W3C//DTD SVG 20010904//EN"
 "http://www.w3.org/TR/2001/REC-SVG-20010904/DTD/svg10.dtd">
<svg version="1.0" xmlns="http://www.w3.org/2000/svg"
 width="358.000000pt" height="105.000000pt" viewBox="0 0 358.000000 105.000000"
 preserveAspectRatio="xMidYMid meet">

<g transform="translate(0.000000,105.000000) scale(0.100000,-0.100000)"
fill="#000000" stroke="none">
<path d="M1322 964 c-27 -19 -29 -69 -3 -103 17 -22 19 -23 49 -7 54 28 67 72
30 106 -26 24 -46 25 -76 4z m72 -26 c16 -26 -4 -53 -40 -53 -23 0 -30 5 -32
23 -7 47 47 69 72 30z"/>
<path d="M1250 820 c0 -5 9 -11 19 -15 11 -3 22 -12 25 -20 7 -20 45 -19 53 1
3 8 1 20 -6 27 -13 13 -91 19 -91 7z"/>
<path d="M1161 781 c-23 -31 -26 -41 -13 -41 14 0 52 59 43 65 -5 3 -19 -8
-30 -24z"/>
<path d="M2304 734 c-18 -15 -18 -15 6 -10 14 3 33 6 43 6 9 0 17 5 17 10 0
16 -44 12 -66 -6z"/>
<path d="M1342 693 c-12 -38 -9 -54 8 -37 14 14 24 74 13 74 -5 0 -15 -17 -21
-37z"/>
<path d="M2431 723 c0 -13 59 -56 66 -49 9 8 -37 56 -54 56 -7 0 -13 -3 -12
-7z"/>
<path d="M2221 649 c-13 -39 -14 -49 -2 -49 5 0 12 11 15 24 3 13 9 31 12 40
3 9 2 16 -4 16 -6 0 -15 -14 -21 -31z"/>
<path d="M3130 671 c0 -6 12 -42 27 -81 22 -60 24 -73 12 -81 -14 -9 -12 -10
14 -13 6 0 13 -10 15 -21 2 -16 -11 -27 -63 -52 l-66 -31 -21 29 c-26 34 -53
40 -43 8 19 -60 63 -153 73 -157 8 -2 12 10 12 40 l0 43 67 22 c71 23 88 19
79 -19 -2 -10 0 -18 5 -18 10 0 24 -29 63 -124 26 -63 37 -32 22 62 l-13 84
23 10 c32 15 31 30 -2 22 -24 -6 -43 6 -44 27 0 3 26 16 57 28 57 22 93 46 93
63 0 14 -58 9 -111 -12 -29 -10 -56 -17 -61 -14 -15 9 -9 34 12 46 29 18 25
24 -12 21 -31 -4 -36 1 -76 62 -38 59 -62 80 -62 56z"/>
<path d="M1151 638 c10 -38 29 -60 29 -36 0 25 -18 68 -29 68 -6 0 -6 -12 0
-32z"/>
<path d="M1253 599 c-18 -12 -33 -25 -33 -31 0 -5 3 -8 8 -6 50 24 62 33 62
45 0 16 1 17 -37 -8z"/>
<path d="M2505 579 c-6 -37 -2 -59 10 -47 3 3 8 24 11 46 8 55 -12 56 -21 1z"/>
<path d="M1784 585 c-17 -25 -13 -52 13 -92 14 -21 16 -21 48 -6 56 27 67 98
19 117 -33 13 -64 6 -80 -19z m86 -10 c20 -24 -3 -65 -35 -65 -32 0 -55 41
-35 65 7 8 23 15 35 15 12 0 28 -7 35 -15z"/>
<path d="M117 562 c-22 -24 -21 -54 1 -91 l18 -30 39 22 c30 17 41 30 43 51 7
56 -64 89 -101 48z m79 -28 c7 -28 -10 -54 -35 -54 -43 0 -58 64 -18 79 30 11
46 4 53 -25z"/>
<path d="M1123 519 c-18 -12 -30 -25 -27 -30 6 -11 66 23 72 40 5 16 -9 13
-45 -10z"/>
<path d="M2220 521 c0 -26 19 -75 26 -68 9 9 -6 87 -17 87 -5 0 -9 -9 -9 -19z"/>
<path d="M1195 498 c7 -34 21 -55 30 -47 7 8 -17 79 -27 79 -5 0 -7 -15 -3
-32z"/>
<path d="M388 513 c-32 -8 -20 -26 13 -19 17 3 35 6 40 6 5 0 9 5 9 10 0 10
-30 12 -62 3z"/>
<path d="M511 493 c0 -13 59 -56 66 -49 9 8 -37 56 -54 56 -7 0 -13 -3 -12 -7z"/>
<path d="M2425 465 c-16 -13 -26 -27 -22 -31 8 -9 59 26 65 44 6 19 -10 14
-43 -13z"/>
<path d="M265 462 c-21 -10 -35 -21 -30 -24 13 -8 75 18 75 32 0 12 3 13 -45
-8z"/>
<path d="M1553 469 c-18 -5 -33 -14 -33 -20 0 -6 9 -8 20 -5 11 3 29 9 40 12
11 3 20 10 20 15 0 11 -4 10 -47 -2z"/>
<path d="M1662 469 c5 -15 76 -31 84 -18 6 11 -5 16 -50 24 -31 6 -38 5 -34
-6z"/>
<path d="M995 435 c-16 -13 -24 -24 -17 -25 17 0 62 30 62 41 0 15 -13 10 -45
-16z"/>
<path d="M1777 453 c-12 -11 -8 -43 6 -45 6 0 17 -2 23 -2 6 -1 22 -9 37 -19
14 -9 28 -13 31 -8 3 5 -5 16 -18 25 -14 8 -27 25 -31 36 -6 19 -34 27 -48 13z"/>
<path d="M2722 424 c-26 -18 -28 -53 -6 -95 10 -20 20 -29 30 -25 9 3 19 6 23
6 17 0 51 43 51 65 0 27 -35 65 -60 65 -8 0 -26 -7 -38 -16z m59 -14 c25 -14
25 -56 -1 -70 -42 -22 -82 34 -48 68 15 15 24 15 49 2z"/>
<path d="M96 413 c-4 -9 -1 -23 7 -30 12 -12 19 -11 45 4 40 23 40 29 1 37
-44 8 -46 8 -53 -11z"/>
<path d="M1412 415 c-18 -8 -31 -19 -27 -24 7 -12 68 12 73 28 5 14 -6 13 -46
-4z"/>
<path d="M1250 396 c0 -14 41 -36 65 -36 8 0 15 5 15 10 0 6 -6 10 -12 10 -7
0 -25 7 -40 14 -22 12 -28 12 -28 2z"/>
<path d="M2277 404 c-10 -18 5 -63 19 -57 8 3 14 0 14 -6 0 -6 5 -11 11 -11 6
0 9 8 7 18 -2 9 3 22 12 29 21 16 6 27 -19 14 -16 -9 -22 -8 -29 5 -5 9 -12
13 -15 8z"/>
<path d="M610 390 c0 -17 42 -70 51 -64 5 3 -1 20 -14 39 -22 35 -37 44 -37
25z"/>
<path d="M870 358 c-19 -11 -30 -23 -23 -25 15 -5 73 24 73 37 0 15 -11 12
-50 -12z"/>
<path d="M2960 333 c-19 -9 -29 -18 -23 -20 17 -6 83 16 83 28 0 13 -19 10
-60 -8z"/>
<path d="M1911 330 c0 -19 36 -63 48 -58 5 1 -3 19 -19 38 -17 20 -29 29 -29
20z"/>
<path d="M2192 297 c-31 -21 -41 -37 -24 -37 4 0 23 11 41 24 41 30 25 43 -17
13z"/>
<path d="M748 302 c-21 -2 -38 -7 -38 -13 0 -12 77 -12 85 0 8 13 -4 17 -47
13z"/>
<path d="M2393 275 c27 -24 57 -33 57 -17 0 10 -54 42 -72 42 -7 0 -1 -12 15
-25z"/>
<path d="M2817 288 c-15 -5 -25 -13 -22 -18 6 -10 85 9 85 21 0 11 -27 10 -63
-3z"/>
<path d="M2698 272 c-7 -10 -22 -22 -33 -27 -17 -8 -14 -10 19 -13 21 -2 44
-1 52 2 19 7 18 42 -2 50 -21 8 -21 8 -36 -12z"/>
<path d="M2020 240 c0 -5 20 -10 45 -10 25 0 45 5 45 10 0 6 -20 10 -45 10
-25 0 -45 -4 -45 -10z"/>
<path d="M2513 235 c4 -13 77 -19 77 -7 0 6 -18 12 -40 14 -25 2 -39 0 -37 -7z"/>
</g>
</svg>
