<?xml version="1.0" standalone="no"?>
<!DOCTYPE svg PUBLIC "-//W3C//DTD SVG 20010904//EN"
 "http://www.w3.org/TR/2001/REC-SVG-20010904/DTD/svg10.dtd">
<svg version="1.0" xmlns="http://www.w3.org/2000/svg"
 width="251.000000pt" height="260.000000pt" viewBox="0 0 251.000000 260.000000"
 preserveAspectRatio="xMidYMid meet">

<g transform="translate(0.000000,260.000000) scale(0.100000,-0.100000)"
fill="#000000" stroke="none">
<path d="M985 2515 c-408 -95 -744 -400 -874 -792 -60 -185 -79 -348 -57 -518
30 -235 87 -393 209 -575 66 -99 212 -242 315 -310 79 -53 82 -56 82 -93 0
-52 21 -98 59 -130 26 -22 43 -27 86 -27 44 0 61 6 104 35 l51 35 100 -15
c178 -27 387 -15 538 30 l53 16 41 -36 c96 -87 204 -85 266 5 26 39 30 116 7
160 -15 29 -15 29 42 77 32 26 70 59 86 73 48 41 148 168 198 252 196 325 225
731 80 1093 -150 371 -498 653 -901 731 -122 23 -363 18 -485 -11z m415 -95
c36 -6 73 -13 82 -16 48 -14 -43 -74 -114 -74 -71 0 -108 -26 -144 -101 -31
-63 -82 -119 -109 -119 -16 0 -32 45 -41 118 -7 55 -32 86 -103 128 -17 10
-31 21 -31 25 0 8 73 26 155 38 86 12 229 13 305 1z m317 -94 c40 -19 106 -58
148 -86 76 -52 215 -175 215 -191 0 -5 -13 -9 -28 -9 -19 0 -40 12 -67 40
-106 108 -260 107 -349 -4 -28 -34 -31 -46 -33 -109 l-1 -72 -56 -33 c-102
-60 -139 -142 -99 -219 l20 -38 -52 -59 c-129 -144 -161 -320 -78 -428 16 -20
41 -44 57 -53 l28 -17 -58 -59 c-32 -33 -62 -58 -65 -57 -4 2 -66 58 -137 125
l-130 123 -4 72 c-6 110 -38 167 -156 276 -242 223 -315 282 -347 282 -67 0
-76 -60 -18 -111 100 -86 236 -212 314 -289 92 -92 109 -125 109 -215 l0 -48
166 -166 c91 -91 182 -179 202 -194 20 -16 57 -47 82 -70 25 -24 135 -124 245
-223 262 -237 272 -249 252 -291 -13 -28 -37 -36 -70 -24 -14 6 -90 83 -168
173 -78 90 -153 177 -168 193 -14 17 -55 64 -91 105 -121 140 -145 165 -299
322 -144 147 -159 159 -210 173 -107 30 -118 39 -335 253 -118 116 -222 212
-232 212 -23 0 -64 -39 -64 -61 0 -24 421 -444 470 -469 22 -11 64 -26 94 -34
74 -20 80 -24 165 -109 l73 -75 -16 -33 c-9 -19 -39 -50 -66 -69 -27 -19 -65
-60 -84 -90 -20 -31 -58 -77 -86 -104 -48 -46 -69 -89 -71 -146 0 -21 -4 -17
-20 20 -22 48 -26 103 -19 260 4 112 0 121 -83 200 -79 74 -90 97 -91 200 -1
76 -4 89 -28 121 -15 19 -56 52 -91 72 -35 21 -80 58 -101 83 -22 26 -57 54
-81 64 -47 20 -46 15 -23 130 56 284 260 563 519 709 77 43 83 42 77 -19 -6
-60 -20 -77 -108 -129 -132 -79 -150 -105 -109 -162 31 -44 61 -38 131 26 32
30 64 55 70 55 22 0 76 -41 102 -78 14 -21 26 -40 26 -43 0 -3 -32 -11 -70
-18 -54 -10 -77 -20 -99 -41 -46 -47 -49 -118 -5 -146 30 -20 61 -4 80 41 11
27 21 35 48 41 19 3 39 3 44 0 5 -3 26 -1 46 5 40 11 76 57 76 97 0 55 -63
147 -135 198 l-29 21 18 28 c14 22 17 39 13 77 -3 26 -3 48 2 48 4 0 26 -14
49 -31 40 -29 42 -34 42 -80 0 -141 117 -213 231 -141 48 31 84 74 118 139 17
35 27 43 58 48 107 19 182 57 222 114 12 17 28 31 34 31 7 0 45 -15 84 -34z
m132 -281 c16 -8 43 -32 61 -54 39 -50 84 -64 188 -59 l76 3 48 -90 c79 -149
128 -336 128 -492 0 -71 -1 -73 -24 -73 -39 0 -126 23 -126 32 0 5 4 17 10 27
20 39 50 174 50 230 0 99 -51 182 -129 213 -71 27 -210 0 -305 -59 -33 -22
-42 -23 -67 -12 -37 15 -112 7 -162 -17 -29 -14 -40 -15 -49 -6 -19 19 -1 41
77 93 82 56 100 84 91 149 -8 59 5 94 41 114 36 19 57 20 92 1z m254 -375
c120 -94 -19 -448 -208 -530 -22 -9 -68 -20 -102 -23 -35 -4 -79 -14 -99 -22
-21 -9 -91 -69 -163 -140 -111 -111 -127 -123 -140 -110 -14 14 -3 28 95 128
160 163 147 141 155 270 7 128 23 173 92 253 130 154 296 232 370 174z m-472
-123 c-65 -86 -101 -188 -101 -292 0 -69 -8 -105 -22 -105 -29 0 -80 36 -94
66 -31 65 0 158 85 255 36 42 150 129 168 129 2 0 -14 -24 -36 -53z m-1400
-282 c38 -36 75 -65 82 -65 7 0 28 -13 46 -28 34 -28 34 -30 36 -113 1 -102
14 -128 100 -219 83 -87 88 -97 74 -160 -6 -28 -9 -89 -7 -135 l3 -84 -39 37
c-180 172 -280 336 -337 552 -10 37 -39 232 -39 263 0 9 3 17 6 17 4 0 38 -29
75 -65z m1997 -91 c12 -6 -19 -62 -69 -124 -68 -86 -99 -159 -99 -231 0 -111
-127 -296 -169 -245 -5 6 -26 44 -46 84 -36 71 -37 75 -30 150 6 65 3 85 -14
130 -12 29 -21 54 -21 56 0 2 18 6 40 10 110 17 219 79 277 156 l35 47 46 -16
c26 -9 48 -16 50 -17z m112 -68 c0 -2 -14 -45 -31 -97 -31 -95 -85 -212 -134
-288 -28 -45 -43 -50 -26 -10 5 13 15 59 20 102 9 61 18 88 41 120 76 106 110
157 110 166 0 6 5 11 10 11 6 0 10 -2 10 -4z m-647 -194 c6 -15 12 -72 12
-127 0 -98 1 -102 45 -188 54 -106 80 -135 132 -143 34 -6 37 -8 21 -20 -10
-7 -23 -14 -28 -14 -8 0 -259 219 -378 329 -10 10 163 202 175 195 5 -3 14
-18 21 -32z m-553 -151 c0 -5 -40 -46 -90 -91 -49 -45 -90 -78 -90 -73 0 18
32 54 75 83 24 17 52 44 62 60 16 28 43 41 43 21z m97 -140 c-8 -9 -70 -79
-138 -156 -68 -77 -153 -175 -187 -217 -69 -85 -100 -102 -132 -73 -29 26 -25
65 12 109 18 22 120 120 227 218 l196 179 18 -22 c15 -19 16 -24 4 -38z m104
-90 c8 -10 58 -72 112 -138 53 -66 97 -123 97 -126 0 -20 -171 -47 -300 -47
-125 0 -192 8 -188 21 6 17 249 309 257 309 5 0 15 -8 22 -19z"/>
<path d="M367 1702 c-10 -10 -17 -29 -17 -41 0 -25 13 -39 189 -201 172 -158
190 -169 224 -132 34 37 22 55 -158 226 -182 173 -203 186 -238 148z"/>
</g>
</svg>
