<?xml version="1.0" encoding="UTF-8"?>
<svg version="1.1" xmlns="http://www.w3.org/2000/svg" width="335" height="206">
<path d="M0 0 C7.26 0 14.52 0 22 0 C19.525 1.98 19.525 1.98 17 4 C14.73220376 7.25995709 14.83972159 9.91072242 15 13.8125 C15.11098325 21.41485267 14.22609207 26.18651245 9 32 C6.73302111 33.83970038 4.35176575 35.48540519 1.9375 37.125 C-3.46733101 40.57422268 -3.46733101 40.57422268 -8 45 C-8 45.99 -8 46.98 -8 48 C-4.49917195 47.35146531 -1.15591237 46.46823664 2.25 45.4375 C8.73200824 43.65386015 14.20527118 43.44738627 20.79296875 44.75 C25.62834973 45.3672588 28.54273245 43.65392793 32.625 41.25 C43.63577463 35.26928558 56.20351996 31.61775858 68.625 35.125 C77.30247651 38.42998671 80.88486185 43.88913811 84.8359375 52.09765625 C88.35212647 60.8645301 87.19531302 69.56019654 85.1875 78.5625 C85.02185547 79.36107422 84.85621094 80.15964844 84.68554688 80.98242188 C83.83508923 84.92020122 82.82360365 88.64465348 81.36328125 92.40234375 C79.82282593 95.82634123 79.82282593 95.82634123 80 99 C82.24886238 99.50509208 84.49913869 100.00389179 86.75 100.5 C88.00296875 100.7784375 89.2559375 101.056875 90.546875 101.34375 C94.06912245 102.12446903 94.06912245 102.12446903 98 102 C96.63371207 75.29499042 92.17502232 51.17880706 79.71557617 27.40087891 C77.767964 23.67429577 76.21423538 20.02680101 75 16 C74.31035156 16.0721875 73.62070312 16.144375 72.91015625 16.21875 C66.92887512 16.80949382 61.0094739 17.36682606 55 17 C54.27167969 16.95617187 53.54335938 16.91234375 52.79296875 16.8671875 C46.41993457 15.9966154 42.87426892 12.70067453 38.359375 8.2890625 C36.01731586 6.01679982 33.56045181 4.01914824 31 2 C30.01 1.01 30.01 1.01 29 0 C36.52418578 -0.35629126 44.04618795 -0.60063515 51.5769043 -0.76904297 C54.13534799 -0.83926143 56.69323343 -0.93467046 59.24975586 -1.05615234 C79.87694645 -2.01144936 79.87694645 -2.01144936 85.00509644 1.29141235 C88.60487927 4.95869677 90.27146225 9.23018508 92 14 C92.78066493 15.46043665 93.58135938 16.91071894 94.41796875 18.33984375 C95.01852795 19.53373231 95.60870342 20.73291054 96.1875 21.9375 C96.51153809 22.60531494 96.83557617 23.27312988 97.16943359 23.96118164 C98.1293613 25.96690539 99.0680957 27.98112739 100 30 C100.53496094 31.1446875 101.06992187 32.289375 101.62109375 33.46875 C118.51983989 72.44559824 117.73242282 117.73252996 102.85742188 157.11303711 C97.30607528 171.12783997 89.8028409 183.97638601 80.59329224 195.91038513 C79.54844941 197.28070444 78.53861504 198.67859299 77.56971741 200.10362244 C75.22357071 203.25356608 73.39075545 205.60710679 69.52270508 206.69984436 C66.58891309 206.92428037 63.75630528 206.90098543 60.81640625 206.78125 C59.23314796 206.76427063 59.23314796 206.76427063 57.61790466 206.74694824 C54.26421494 206.70235308 50.91488531 206.60201761 47.5625 206.5 C45.28196302 206.45985141 43.00135867 206.42335307 40.72070312 206.390625 C35.14566121 206.30267467 29.57314207 206.16900939 24 206 C17.01686076 194.0686405 11.65276659 184.58458536 11.4375 170.5 C11.71975388 158.90728618 11.71975388 158.90728618 7 149 C-0.52305743 156.31663207 -7.70530324 163.57537564 -14 172 C-12.4277874 176.04418543 -9.54841039 178.50598321 -6.375 181.3125 C-5.55986938 182.04533203 -5.55986938 182.04533203 -4.72827148 182.79296875 C-3.15770064 184.20166109 -1.5800107 185.601914 0 187 C1.04607422 187.93392578 1.04607422 187.93392578 2.11328125 188.88671875 C5.1628064 191.58362215 8.2590151 194.22102461 11.37890625 196.8359375 C11.97517822 197.33673828 12.5714502 197.83753906 13.18579102 198.35351562 C14.38312287 199.35765667 15.5827882 200.3590227 16.78491211 201.35742188 C18.20825465 202.55009419 19.60669939 203.77236623 21 205 C21 205.33 21 205.66 21 206 C2.58062583 208.53959289 2.58062583 208.53959289 -4.62890625 204.54248047 C-9.3461119 200.89239878 -13.25743785 196.5668885 -17.13745117 192.05859375 C-20.15337501 188.72522505 -23.57760151 185.90276967 -27 183 C-29.61117021 180.61826316 -32.20787957 178.22190118 -34.80078125 175.8203125 C-37.47041728 173.41003487 -40.26036882 171.16913606 -43.06298828 168.91552734 C-51.19161318 162.27362942 -58.72253385 155.04435389 -66.22818089 147.71326447 C-68.63428575 145.3631321 -71.05298691 143.03041032 -73.5090332 140.73242188 C-92.41815705 123.01131288 -92.41815705 123.01131288 -92.96484375 112.78125 C-92.99025074 111.40165451 -92.999862 110.02164801 -92.99121094 108.6418457 C-93.0139917 99.20238326 -99.27749041 93.19655146 -105.57150269 86.90597534 C-107.31141183 85.20071307 -109.06175169 83.50662425 -110.8125 81.8125 C-111.97571555 80.6658346 -113.13783291 79.51805405 -114.29882812 78.36914062 C-119.50140907 73.24225378 -124.75259849 68.20866128 -130.30297852 63.45629883 C-133.48433458 60.72621842 -136.53335569 57.85163298 -139.61083984 55.00561523 C-142.39019402 52.44591543 -145.20713821 49.96257838 -148.125 47.5625 C-150.74134759 45.23053802 -151.77145495 44.13961512 -153 41 C-152.8125 37.375 -152.8125 37.375 -152 34 C-148.48794959 31.65863306 -147.13344789 31.59849448 -143 32 C-134.47279942 35.86089142 -127.7227279 42.65877659 -121 49 C-119.69436177 50.153646 -118.38245674 51.30026454 -117.0625 52.4375 C-113.19169411 55.80273124 -109.4072137 59.2596768 -105.6418457 62.74194336 C-103.14592671 65.04783171 -100.63468101 67.31667465 -98.06640625 69.54296875 C-86.43537971 79.68986985 -78.56146058 90.16972222 -77.42919922 105.83374023 C-77.10753463 112.94395655 -77.10753463 112.94395655 -74.453125 119.359375 C-72.52300657 121.04198699 -72.52300657 121.04198699 -70.34375 122.4375 C-67.51103555 124.3259763 -65.36154838 126.55098686 -63 129 C-58.82801297 133.21664133 -54.51130365 137.15370924 -50 141 C-48.49840284 142.31067243 -46.99837043 143.62313997 -45.5 144.9375 C-44.8296875 145.52402344 -44.159375 146.11054688 -43.46875 146.71484375 C-42.9840625 147.13894531 -42.499375 147.56304687 -42 148 C-35.72135278 143.84141548 -31.35452911 139.12355656 -27 133 C-28.12728516 132.61328125 -28.12728516 132.61328125 -29.27734375 132.21875 C-35.08315612 129.61987847 -38.78220341 124.07765127 -41.4375 118.4375 C-45.90850069 105.93026099 -42.7032073 93.60694915 -37.375 82.0625 C-34.55951272 76.59341595 -31.05388074 72.08133489 -27.05859375 67.42578125 C-24.7744364 64.73420304 -22.86035369 61.99274289 -21 59 C-21.474375 58.154375 -21.94875 57.30875 -22.4375 56.4375 C-24.83919348 51.15377433 -25.5403128 47.07312069 -23.875 41.5 C-21.10563533 34.34076907 -18.61124909 30.7744857 -11.74609375 27.27172852 C-5.7507365 24.2184654 -5.7507365 24.2184654 -2.17871094 18.77197266 C-1.19202436 13.82405806 -1.00196547 8.8643824 -1.07495117 3.82836914 C-1 2 -1 2 0 0 Z M15 75 C6.57935843 85.8742423 4.64091564 96.53532566 3.828125 109.96484375 C3.18114024 118.86088422 1.55645647 124.99805213 -4.75 131.5625 C-5.21736572 132.05645264 -5.68473145 132.55040527 -6.16625977 133.05932617 C-9.02407664 136.05303147 -11.96545092 138.95941357 -14.91796875 141.859375 C-15.5840918 142.51607178 -16.25021484 143.17276855 -16.93652344 143.84936523 C-18.24005434 145.1282442 -19.55156568 146.39905517 -20.87207031 147.66040039 C-24.79676856 151.48682519 -27.50311086 155.11260546 -30 160 C-29.01 160.33 -28.02 160.66 -27 161 C-25.23001462 159.95119748 -25.23001462 159.95119748 -23.5 158.25 C-22.79875 157.60546875 -22.0975 156.9609375 -21.375 156.296875 C-18.23218313 153.25744026 -15.14678274 150.16309587 -12.07055664 147.05639648 C-8.20146595 143.16185565 -4.19907834 139.53048723 0 136 C1.13501953 134.96166016 1.13501953 134.96166016 2.29296875 133.90234375 C9.61578276 127.48760525 16.25936126 125.91245942 25.7109375 124.41015625 C39.38554548 122.06633399 48.98792058 116.12213905 57.21484375 105.0078125 C65.99125925 92.3891959 72.32735755 77.63868529 71 62 C70.03014701 57.54020358 68.76762825 54.73018297 65.4375 51.5625 C47.99162852 40.37924905 25.68455022 62.59371513 15 75 Z M5 61 C0.96991592 63.9621118 -3.02432159 66.96554262 -7 70 C-7.74636719 70.56074219 -8.49273437 71.12148437 -9.26171875 71.69921875 C-18.86819069 79.43505924 -26.12644046 90.74247488 -28 103 C-27.92629223 107.98264502 -26.80672721 110.99704184 -23.6875 114.875 C-20.05983314 117.79368631 -20.05983314 117.79368631 -16 120 C-13.81977778 119.45075821 -13.81977778 119.45075821 -12 118 C-11.32823422 115.90943699 -11.32823422 115.90943699 -11.3125 113.44921875 C-11.25610352 112.52931152 -11.19970703 111.6094043 -11.14160156 110.66162109 C-11.09487305 109.68016113 -11.04814453 108.69870117 -11 107.6875 C-9.82195532 90.85014719 -4.93937436 76.18931661 6 63 C5.505 62.01 5.505 62.01 5 61 Z M69 113 C67.76684922 114.52188853 66.56417721 116.06850936 65.375 117.625 C54.45179344 131.26942643 39.80642539 137.32963124 23 141 C23.20496094 141.67546875 23.40992188 142.3509375 23.62109375 143.046875 C23.89050781 143.93890625 24.15992188 144.8309375 24.4375 145.75 C24.70433594 146.63171875 24.97117188 147.5134375 25.24609375 148.421875 C25.49488281 149.27265625 25.74367187 150.1234375 26 151 C26.18433594 151.61818604 26.36867187 152.23637207 26.55859375 152.87329102 C27.04944275 155.23821672 26.98695978 157.19838834 26.81640625 159.60546875 C26.06822319 174.55564917 28.41230196 186.08342893 38 198 C41.56225698 197.89205282 43.71108984 196.72865024 46.3125 194.4375 C54.67556673 185.52423151 58.59011029 173.87872596 60 162 C62.39033882 149.07879784 68.25955837 139.53281651 76.21679688 129.30151367 C79.00537601 125.65494779 80.81029839 122.516716 82 118 C80.02173314 117.16453285 78.04236176 116.33168055 76.0625 115.5 C74.40927734 114.80390625 74.40927734 114.80390625 72.72265625 114.09375 C70.33436831 112.93787209 70.33436831 112.93787209 69 113 Z M95 126 C94.69449219 126.53625 94.38898438 127.0725 94.07421875 127.625 C91.61341328 131.83956261 89.06407102 135.95201239 86.2578125 139.9453125 C85.77352783 140.63496094 85.28924316 141.32460937 84.7902832 142.03515625 C83.82516156 143.40000695 82.85263609 144.75966051 81.87182617 146.11328125 C76.84119418 153.22913551 74.68082729 160.28025098 73.25 168.8125 C73.11207031 169.56208984 72.97414063 170.31167969 72.83203125 171.08398438 C72.24113358 174.4923065 71.88973372 176.66920115 73 180 C77.23290882 173.96504254 80.80038243 167.85538031 83.9375 161.1875 C84.57328979 159.8418396 84.57328979 159.8418396 85.22192383 158.46899414 C88.18374674 152.06521888 90.81585508 145.58190432 93.1875 138.9375 C93.49099365 138.09920654 93.7944873 137.26091309 94.10717773 136.3972168 C94.37473877 135.61515869 94.6422998 134.83310059 94.91796875 134.02734375 C95.15281982 133.34406006 95.3876709 132.66077637 95.62963867 131.95678711 C96.06167249 129.67415622 95.71103877 128.18999942 95 126 Z M71 180 C72 182 72 182 72 182 Z " fill="#FEFEFE" transform="translate(215,0)"/>
<path d="M0 0 C1.24112549 0.01571045 1.24112549 0.01571045 2.50732422 0.03173828 C3.85117188 0.04140625 3.85117188 0.04140625 5.22216797 0.05126953 C6.62789062 0.07640625 6.62789062 0.07640625 8.06201172 0.10205078 C9.00689453 0.11107422 9.95177734 0.12009766 10.92529297 0.12939453 C13.26278464 0.15300556 15.59977295 0.18593562 17.93701172 0.22705078 C15.55510523 3.86259226 13.09106663 7.38480188 10.48681641 10.86694336 C-1.2854227 26.78083644 -8.74554289 44.12256988 -13.43798828 63.28955078 C-13.68995972 64.30662109 -13.68995972 64.30662109 -13.94702148 65.34423828 C-15.03787075 70.12488075 -15.55783682 74.36619485 -15.06298828 79.22705078 C-13.27614793 81.11633458 -13.27614793 81.11633458 -10.68798828 82.10205078 C-6.50602704 84.26896087 -3.63916594 86.45749668 -0.43798828 89.91455078 C4.28662324 94.89414133 9.46089105 98.55330785 15.22851562 102.20825195 C20.90830984 105.89246178 25.40912405 109.92398726 28.28857422 116.14892578 C29.08545571 119.93171264 29.22353318 123.62952284 29.31201172 127.47705078 C29.98335308 140.66511642 33.89938324 146.90771339 43.54101562 155.87597656 C44.1886084 156.4816748 44.83620117 157.08737305 45.50341797 157.71142578 C46.0906665 158.24477539 46.67791504 158.778125 47.28295898 159.32763672 C51.95945834 164.69784557 52.35779014 169.55823062 52.22998047 176.34423828 C52.22573563 177.20139435 52.22149078 178.05855042 52.21711731 178.94168091 C52.20041058 181.66213242 52.16277391 184.3818256 52.12451172 187.10205078 C52.1094545 188.95360253 52.09576791 190.80516597 52.08349609 192.65673828 C52.05053337 197.18046511 51.99880709 201.70362965 51.93701172 206.22705078 C46.65701172 206.22705078 41.37701172 206.22705078 35.93701172 206.22705078 C34.96355825 202.33323689 34.98475136 199.99947272 35.33935547 196.06298828 C35.42378906 194.85771484 35.50822266 193.65244141 35.59521484 192.41064453 C35.77986164 189.89273374 35.99294656 187.37673034 36.23583984 184.86376953 C36.65618397 178.10233659 36.46308625 173.97727181 32.16748047 168.55126953 C30.79746131 167.07166143 29.38889085 165.62642194 27.93701172 164.22705078 C27.28684082 163.58445313 26.63666992 162.94185547 25.96679688 162.27978516 C25.42071777 161.74675781 24.87463867 161.21373047 24.31201172 160.66455078 C15.15479791 151.7168842 13.04018134 143.50254606 12.62451172 131.03955078 C12.62604248 130.36206787 12.62757324 129.68458496 12.62915039 128.98657227 C12.47085472 123.30257231 10.85853432 121.05893858 6.93701172 117.22705078 C4.79371116 115.748715 4.79371116 115.748715 2.49951172 114.66455078 C-5.01539321 110.44665407 -10.92342678 104.18967967 -17.06298828 98.22705078 C-18.47008813 101.04125048 -17.85546018 102.91196588 -17.42626953 106.02001953 C-17.26352539 107.20015625 -17.10078125 108.38029297 -16.93310547 109.59619141 C-11.66322315 145.68242585 0.65550694 174.24890912 25.68701172 200.76611328 C27.93701172 203.22705078 27.93701172 203.22705078 29.93701172 206.22705078 C11.91208944 208.24254097 11.91208944 208.24254097 5.99267578 205.24121094 C1.97833842 201.99771573 -0.47466785 197.61675874 -3.06298828 193.22705078 C-3.99451839 191.7986605 -4.93222166 190.37428046 -5.87548828 188.95361328 C-28.95450982 153.48920182 -39.55098303 107.90141722 -31.00048828 66.03955078 C-28.32872246 53.93277876 -15.8582444 1.74534524 0 0 Z " fill="#FEFEFE" transform="translate(39.06298828125,-0.22705078125)"/>
<path d="M0 0 C10.45146985 3.28682041 19.79177137 15.77787082 27.32543945 23.45458984 C29.65921143 25.82522266 31.99632913 28.19248764 34.3371582 30.55615234 C34.89110764 31.11582703 35.44505707 31.67550171 36.01579285 32.25213623 C39.55643447 35.80660992 43.18160712 39.20601623 47.0324707 42.42675781 C48.79211827 43.96430875 50.3637188 45.61550283 51.95043945 47.32958984 C58.95477457 54.34962975 67.19174977 58.53520148 76.62792969 61.26147461 C83.29673747 63.4244916 87.7293003 68.00663332 92.63793945 72.82958984 C93.22292206 73.4012085 93.80790466 73.97282715 94.41061401 74.56176758 C98.52786039 78.59416096 102.61073866 82.65988994 106.6796875 86.7409668 C108.82805812 88.89471506 110.98174639 91.04304211 113.13598633 93.19091797 C114.52628114 94.58187339 115.91626581 95.97313887 117.3059082 97.36474609 C117.9383696 97.99518326 118.57083099 98.62562042 119.22245789 99.27516174 C123.00872989 103.08106815 126.60996428 107.00183413 130.11497498 111.06851196 C132.19576136 113.47462644 134.35452712 115.80562666 136.51293945 118.14208984 C140.62522501 122.64572584 144.49693333 127.29227633 148.3215332 132.04052734 C151.66297515 136.06378122 155.20469496 139.88458131 158.7668457 143.71240234 C160.63793945 145.82958984 160.63793945 145.82958984 160.63793945 146.82958984 C157.20072285 146.94563663 153.76400859 147.01678493 150.32543945 147.07958984 C149.34897461 147.11310547 148.37250977 147.14662109 147.36645508 147.18115234 C146.42866211 147.19404297 145.49086914 147.20693359 144.5246582 147.22021484 C143.6605835 147.24116211 142.79650879 147.26210937 141.90625 147.28369141 C139.63793945 146.82958984 139.63793945 146.82958984 137.83251953 144.80517578 C137.43830811 144.15323242 137.04409668 143.50128906 136.63793945 142.82958984 C133.51596468 144.13854704 133.51596468 144.13854704 131.63793945 146.82958984 C124.70793945 146.82958984 117.77793945 146.82958984 110.63793945 146.82958984 C113.95961662 142.95429982 117.05113855 139.40787348 120.57543945 135.82958984 C123.00151983 133.15595427 123.00151983 133.15595427 123.85668945 129.76708984 C123.59751357 127.62262576 123.59751357 127.62262576 122.63793945 124.82958984 C117.55326943 128.6229151 112.81623144 132.49251711 108.4074707 137.05615234 C105.80727612 139.66208687 103.02802896 142.04584483 100.23950195 144.44677734 C99.34941126 145.21529467 98.46946826 145.99806104 97.63793945 146.82958984 C94.75360125 146.91824192 91.89331787 146.9448028 89.0090332 146.92724609 C87.712687 146.92512367 87.712687 146.92512367 86.39015198 146.92295837 C83.61854653 146.91734223 80.84702065 146.90478703 78.07543945 146.89208984 C76.20109166 146.88707692 74.3267426 146.88251366 72.45239258 146.87841797 C67.84754402 146.86736756 63.24275524 146.85009214 58.63793945 146.82958984 C60.73916762 143.23338585 62.9005841 140.29872428 65.76293945 137.26708984 C69.16734659 133.56472812 72.23651352 129.76778814 75.20043945 125.70458984 C79.82641475 119.42648052 84.85557326 114.00597321 90.95043945 109.14208984 C93.63687465 106.83050607 95.22480218 105.071493 96.63793945 101.82958984 C96.00039934 96.52350201 91.80522169 93.48377569 88.20043945 89.89208984 C87.52561523 89.18890625 86.85079102 88.48572266 86.15551758 87.76123047 C79.17646121 80.75591236 71.55457759 77.16807819 62.13793945 74.51708984 C52.29542881 71.4776551 45.78701734 65.32066955 38.81762695 57.98193359 C36.98991597 56.17715089 35.13208843 54.52664251 33.1809082 52.86083984 C27.78869711 48.17849103 22.77487592 43.11625076 17.73779297 38.05981445 C16.07866625 36.39532707 14.41425894 34.73625538 12.74926758 33.07763672 C7.67254525 28.00385214 2.66998509 22.92206442 -1.97509766 17.44311523 C-2.92140211 16.34223051 -3.90523272 15.27278939 -4.91894531 14.23364258 C-7.35095903 11.65680247 -8.34322924 10.30037245 -8.48706055 6.70458984 C-6.89612966 2.63887758 -4.67472663 -0.33725676 0 0 Z M109.63793945 111.82958984 C106.99793945 114.79958984 104.35793945 117.76958984 101.63793945 120.82958984 C104.59644978 121.14605485 104.59644978 121.14605485 106.2434082 119.51708984 C106.76547852 118.96021484 107.28754883 118.40333984 107.82543945 117.82958984 C108.35524414 117.27271484 108.88504883 116.71583984 109.4309082 116.14208984 C109.82922852 115.70896484 110.22754883 115.27583984 110.63793945 114.82958984 C110.30793945 113.83958984 109.97793945 112.84958984 109.63793945 111.82958984 Z M98.63793945 122.82958984 C95.66793945 125.46958984 92.69793945 128.10958984 89.63793945 130.82958984 C89.96793945 131.48958984 90.29793945 132.14958984 90.63793945 132.82958984 C93.93793945 129.85958984 97.23793945 126.88958984 100.63793945 123.82958984 C99.97793945 123.49958984 99.31793945 123.16958984 98.63793945 122.82958984 Z " fill="#FEFEFE" transform="translate(40.362060546875,59.17041015625)"/>
<path d="M0 0 C2.17425537 -0.42132568 2.17425537 -0.42132568 4.90527344 -0.48339844 C5.92683533 -0.51222107 6.94839722 -0.5410437 8.00091553 -0.57073975 C9.10920715 -0.58348938 10.21749878 -0.59623901 11.359375 -0.609375 C12.4965094 -0.62647522 13.6336438 -0.64357544 14.80523682 -0.66119385 C17.21610108 -0.68957445 19.62708227 -0.70915802 22.03808594 -0.72070312 C25.72278088 -0.74978517 29.40242565 -0.84277267 33.0859375 -0.9375 C35.42705348 -0.95709445 37.76820542 -0.97284418 40.109375 -0.984375 C41.2095697 -1.02141541 42.3097644 -1.05845581 43.44329834 -1.09661865 C50.93993769 -1.03135431 50.93993769 -1.03135431 54.00134277 1.94714355 C55.55309101 4.24081375 56.81064746 6.50212521 58 9 C58.34681824 9.6013678 58.69363647 10.2027356 59.05096436 10.82232666 C61.54436101 15.54081161 61.4993818 20.00206068 60 25 C57.83272348 28.78669131 55.07621167 31.40928325 51 33 C48.82040259 33.26394625 46.6298892 33.44527327 44.4375 33.5625 C41.0056926 33.75337238 38.26512402 33.91162533 35 35 C33.36031404 37.05385409 33.36031404 37.05385409 31.875 39.5 C29.03478261 43.96521739 29.03478261 43.96521739 28 45 C24.04706514 45.53903657 22.44019408 45.30622197 19.125 43 C16.90314754 39.86326711 16.31334675 37.96255591 16.58203125 34.12109375 C17.58787595 29.01666691 19.67396793 25.25803042 23.4375 21.6875 C29.8532354 18.64846744 36.89963849 17 44 17 C40.03798264 10.79805794 36.57925054 5.53330121 30 2 C25.17881085 2.16178487 22.32235381 4.8727079 18.875 7.9375 C10.87131256 14.88910567 10.87131256 14.88910567 6.5625 15.4375 C3 15 3 15 0.625 12.9375 C-1.27710194 9.49908496 -1.85486755 6.91857619 -2 3 C-1.34 2.01 -0.68 1.02 0 0 Z " fill="#FEFEFE" transform="translate(74,0)"/>
<path d="M0 0 C11.07138746 3.83240335 20.55433543 15.3041769 28.609375 23.515625 C30.42735286 25.29897471 32.32175714 26.96170654 34.25 28.625 C49.32052585 41.68417908 49.32052585 41.68417908 50.8125 48.8125 C50.03175154 52.02224367 48.93566846 53.21676188 46.25 55.125 C43.5625 55.8125 43.5625 55.8125 40.25 55.125 C33.59067777 51.1002804 28.00768545 45.25562566 22.33984375 39.96875 C20.06356009 37.85331722 17.74289812 35.79739841 15.3984375 33.7578125 C11.17594061 30.07787108 7.04050164 26.31242079 2.9375 22.5 C1.8846582 21.53707031 1.8846582 21.53707031 0.81054688 20.5546875 C-5.80263154 14.40172074 -5.80263154 14.40172074 -7.75 10.125 C-7.67627173 6.51231476 -7.1191886 4.65827243 -5.0625 1.6875 C-2.75 0.125 -2.75 0.125 0 0 Z " fill="#FEFEFE" transform="translate(53.75,43.875)"/>
<path d="M0 0 C9.9 0 19.8 0 30 0 C24.73906265 5.26093735 21.40278196 7.17180609 14 7.4375 C8.66061064 7.30500895 5.91959186 6.61015039 2 3 C1.34 2.01 0.68 1.02 0 0 Z " fill="#FEFEFE" transform="translate(134,0)"/>
</svg>
